# xmcd
# 
# Track frame offsets:
#     150
#     25422
#     50682
# 
# Disc length: 1013
# 
# Revision: 2
# Processed by: cddbd v1.5.2PL0 Copyright (c) Steve Scherf et al.
# Submitted via: fre:ac v1.0.17
# 
DISCID=2203f303
DTITLE=尾崎亜美 - Walking In The Rain
DYEAR=1992
DGENRE=J-Pop
TTITLE0=Walking In The Rain
TTITLE1=伝説の少女
TTITLE2=Walking In The Rain（オリジナルカラオケ）
EXTD=
EXTT0=
EXTT1=
EXTT2=
PLAYORDER=
